<svg xmlns="http://www.w3.org/2000/svg" version="1.1" xmlnsXlink="http://www.w3.org/1999/xlink" xmlns:svgjs="http://svgjs.dev/svgjs" width="2000" height="2250" viewBox="0 0 2000 2250"><g transform="matrix(1,0,0,1,3.410605131648481e-13,0)"><svg viewBox="0 0 320 360" data-background-color="#afaf82" preserveAspectRatio="xMidYMid meet" height="2250" width="2000" xmlns="http://www.w3.org/2000/svg" xmlns:xlink="http://www.w3.org/1999/xlink"><g id="tight-bounds" transform="matrix(1,0,0,1,0,0)"><svg viewBox="0 0 320 360" height="360" width="320"><g><svg></svg></g><g><svg viewBox="0 0 320 360" height="360" width="320"><g><path xmlns="http://www.w3.org/2000/svg" d="M20.961 227.22l3.726 4.658-1.863-6.056c-0.466-2.795-3.726 0.466-1.863 1.398M25.153 224.425c1.397 2.329 2.795 4.658 2.795 6.987 0 3.261 2.795 4.658 5.123 5.589-3.261-3.726-5.124-13.974-7.918-12.576M204.017 26.929c7.918 0 15.371-0.932 23.756 0.931 20.495 5.124 37.729 15.371 49.374 29.811l32.606 52.169c1.397 13.042 4.192 27.482 3.726 43.319 3.261 0 2.795-4.658 6.521-5.59-3.726 9.316-5.59 20.961-6.521 34.469-2.329-7.453 0-18.632 0.466-24.687-3.261 5.124-5.124 1.397-5.124-0.932 0.466-3.726-1.397-3.261-2.795-4.658-5.124-4.658-8.384-9.782-12.11-17.7 2.329-6.055 2.795-14.905-4.658-19.563-2.329-1.397-5.124-3.726-6.521-7.453-1.863-5.124-5.124-11.179-4.193-19.097 0.466-2.329-6.987 5.124-11.179 1.863-18.166-12.576-36.332-27.016-58.224-39.127-11.645 0-20.029-4.192-24.221-9.316-3.726-4.658-0.932-10.713 4.658-11.179 3.261 0 6.987-0.932 9.782 0.932 0.466-1.863 2.329-4.192 4.657-4.192M157.904 16.215l0.932 0.466c4.658 0.932 6.987 7.453 12.11 5.124 0 3.261 0.466 6.521-0.466 8.85-1.397 3.726-5.59 3.726-8.85 3.726-31.208-1.863-49.374 11.179-68.471 22.358-5.124 3.261-10.713 5.59-14.906 9.782-20.029 18.632-41.921 35.866-47.045 70.335l-4.192 38.195c-0.466 4.192-5.124 8.384-4.192 13.508l3.26 22.824c-3.261-3.261-5.124 0.932-4.192 2.795 0.466 1.397 2.329 6.055 5.124 1.863 3.726 6.987 7.453 20.495 12.576 26.55 15.837 18.632 36.332 35.4 53.101 52.169 4.192-0.932 7.453-0.932 8.384-3.727 1.397 2.795-1.397 5.59-3.726 6.056 7.453 4.658 15.837 8.85 27.016 9.781 14.44 0.932 27.948 3.261 40.524 6.522 6.521-1.863 13.042-2.795 20.029-3.261 2.329 0 3.726-3.726 6.521-4.658l0.466-4.658c2.795 4.192 2.329-1.397 0.466-4.192 3.261 2.795 4.192 5.124 5.589 6.987 0-1.397 3.726-6.521 3.727-0.466l0.931-6.055c1.397-0.932 1.863 5.124 3.261 0.931 1.397-4.192 4.192-0.932 6.987-2.329-0.932 1.863-0.466 5.59 2.794 3.261l3.727-3.261c2.329 5.59 6.055 3.261 7.918 2.329 20.495-13.042 40.99-28.413 60.553-43.784l-0.466 6.055 2.329-7.453c2.329 2.329 4.192 0.466 5.124-0.931 2.795-4.658 6.521-9.316 12.577-13.508-7.453 20.029-16.303 35.866-27.482 48.908l-4.658 5.59c0 3.261-0.932 7.453-4.658 7.918-1.863 0.466-5.59-0.932-8.384 1.863-1.397 1.863 3.261 5.59-0.466 2.795-3.261-2.329-6.521 0-10.248 0.932-2.795 0.932 1.863 3.726 2.795 5.589 0.932 1.863 1.863 3.726 1.398 6.056l-5.124-5.59c-6.055 3.261-9.782 9.316-14.906 13.974-2.329 1.863-1.397 5.124-1.397 7.918-3.261 0-6.987-0.932-8.85 0.932-1.397 1.863-0.932 4.658-0.932 7.453-4.658-0.466-5.124-7.453-9.315-6.056-4.192 0.932-8.85 1.397-12.577 3.727 2.795 5.59-4.658 2.329-3.726 3.26-6.987-4.192-13.042-7.453-20.495-4.658-15.837-5.124-35.4-2.795-49.84-0.931 0-2.329 0.466-4.658-0.466-5.124-0.932 2.329-3.726 1.397-3.26 1.397-8.85-6.055-17.7-9.782-27.016-14.905-8.384 0.932-16.303-3.261-18.632-5.59-6.521-6.055-13.974-2.795-20.029-4.192-13.042-3.261-17.7-16.769-19.098-26.084-0.932-4.658-4.658-6.521-6.055-6.056-6.055-19.563-15.371-37.263-22.824-55.429-1.863-4.658-1.397-9.316-1.397-14.44 2.329 0.932 4.658 0.466 4.192-2.794-2.329-15.371-7.918-27.016-13.974-38.195 3.261-15.837 3.726-34.469 11.179-48.443 6.521-12.576 18.632-19.098 27.016-29.811 2.795-3.726 2.795-8.85 5.59-12.11 9.316-9.316 18.632-19.098 28.879-27.482 4.658-3.726 10.247 0 17.234-1.397 2.329-8.384 11.645-15.837 20.495-13.508 3.726 0.932 11.179-8.85 13.508-9.782 3.726-1.397 1.863 3.726 1.863 6.987 8.85-6.987 20.961-10.713 32.14-14.906" fill="#ffffff" fill-rule="nonzero" stroke="none" stroke-width="1" stroke-linecap="butt" stroke-linejoin="miter" stroke-miterlimit="10" stroke-dasharray="" stroke-dashoffset="0" font-family="none" font-weight="none" font-size="none" text-anchor="none" style="mix-blend-mode: normal" data-fill-palette-color="tertiary"></path></g><g transform="matrix(1,0,0,1,64,92.41933401263769)"><svg viewBox="0 0 192 175.16133197472462" height="175.16133197472462" width="192"><g><svg viewBox="0 0 192 175.16133197472462" height="175.16133197472462" width="192"><g><svg viewBox="0 0 192 175.16133197472462" height="175.16133197472462" width="192"><g transform="matrix(1,0,0,1,0,99.25652983599679)"><svg viewBox="0 0 192 75.90480213872783" height="75.90480213872783" width="192"><g id="textblocktransform"><svg viewBox="0 0 192 75.90480213872783" height="75.90480213872783" width="192" id="textblock"><g><svg viewBox="0 0 192 59.3844967219437" height="59.3844967219437" width="192"><g transform="matrix(1,0,0,1,0,0)"><svg width="192" viewBox="3.6500000953674316 -37.5 129.6300048828125 40.099998474121094" height="59.3844967219437" data-palette-color="#f00808"><path d="M5.6 0.3Q3.75 0.3 3.75-0.4L3.75-0.4Q3.75-2.5 3.9-6.75L3.9-6.75 4-13.05Q4-16.55 3.85-23.5L3.85-23.5Q3.65-29.65 3.65-33.9L3.65-33.9Q3.65-37.5 4.95-37.5L4.95-37.5Q8.3-37.5 10.13-35.35 11.95-33.2 11.95-29.65L11.95-29.65Q11.95-25.65 8.75-21.35L8.75-21.35Q11.4-18.7 12.48-16.3 13.55-13.9 13.55-10.55L13.55-10.55Q13.55-8.5 13.43-7.28 13.3-6.05 12.95-5L12.95-5Q12.6-3.9 11.98-3.1 11.35-2.3 10.3-1.6L10.3-1.6Q9.3-0.9 7.7-0.2L7.7-0.2Q7.1-0.05 6.7 0.05L6.7 0.05Q6.05 0.3 5.7 0.3L5.7 0.3 5.6 0.3ZM5.55-21.6Q6.65-21.6 7.65-22.55 8.65-23.5 9.3-25.05L9.3-25.05Q9.95-26.5 10.3-28.08 10.65-29.65 10.65-30.95L10.65-30.95Q10.65-32.7 9.38-34.25 8.1-35.8 6.5-35.8L6.5-35.8Q5.2-35.8 5.2-33.65L5.2-33.65Q5.2-30.3 5.3-27.65L5.3-27.65 5.4-21.65 5.55-21.6ZM5.95-1.65Q7.65-1.65 9.08-2.68 10.5-3.7 11.33-5.4 12.15-7.1 12.15-9.05L12.15-9.05Q12.15-18 7.85-19.8L7.85-19.8Q7.45-19.8 6.55-19.55L6.55-19.55Q5.7-19.25 5.4-19.25L5.4-19.25Q5.65-11.1 5.65-1.7L5.65-1.7 5.8-1.7 5.95-1.65ZM29.55 0.45Q28.8 0.45 28.6 0.28 28.4 0.1 28.3-0.65L28.3-0.65Q27.85-4.3 27.75-5.2L27.75-5.2 27.5-7.2Q26.4-7.45 25-7.45L25-7.45 23.2-7.55Q22-7.7 21.45-7.7L21.45-7.7Q21.15-7.7 21.1-7.45L21.1-7.45Q21.1-7.3 21.05-7.3L21.05-7.3 20.95-6.3Q20.9-5.4 20.4-2.7L20.4-2.7Q20.15-1.35 19.8-0.6L19.8-0.6Q19.4 0.25 19.05 0.25L19.05 0.25Q18.75 0.25 18.4-0.03 18.05-0.3 18.05-0.6L18.05-0.6 18.1-0.75 18.15-0.9Q19.05-4.45 19.65-7.95L19.65-7.95 20.25-11.05 20.85-14.85Q20.85-14.85 21.4-18.15L21.4-18.15Q21.65-19.5 22.3-22.5L22.3-22.5Q23-25.9 23.15-27.15L23.15-27.15Q23.2-27.3 23.35-29L23.35-29Q23.55-30.9 23.7-31.8L23.7-31.8Q23.85-33.1 24-33.3L24-33.3 24.35-33.3Q24.5-33.25 24.7-33.25L24.7-33.25Q25.3-33.25 25.6-33.55L25.6-33.55Q25.95-33.55 26.22-33.33 26.5-33.1 26.5-32.8L26.5-32.8Q26.5-30.4 26.85-27.3L26.85-27.3Q27.05-25.7 27.15-24.65L27.15-24.65Q27.7-18.2 29.95-0.45L29.95-0.45 29.95-0.3Q29.95 0.2 29.55 0.45L29.55 0.45ZM26.75-8.55L27.25-8.55Q26.75-15.75 25.35-29.8L25.35-29.8 22.65-16.45Q21.5-10.7 21.5-9.2L21.5-9.2Q21.5-8.95 23.4-8.75 25.3-8.55 26.75-8.55L26.75-8.55ZM40.25 0.8L39.05 0.35Q38.09 0.05 37.42-0.5 36.75-1.05 36.15-2.15L36.15-2.15Q35.09-4.15 34.9-7.9L34.9-7.9Q34.8-9.6 34.8-10.9L34.8-10.9 34.8-16.6Q34.8-19.85 35-22.9L35-22.9Q35.15-25.15 35.45-26.7 35.75-28.25 36.4-29.8L36.4-29.8Q37.09-31.4 37.95-32.05L37.95-32.05Q38.3-32.35 39.3-32.75L39.3-32.75Q39.95-33 40.55-33.3L40.55-33.3 42.55-33.3 42.7-33.3Q42.75-33.25 42.84-33.25L42.84-33.25 43.09-33.2 43.3-33.05Q43.45-32.9 43.45-32.85L43.45-32.85Q43.5-32.75 43.5-32.55L43.5-32.55 42.84-31.8 40.75-31.8Q39.8-31.8 39.02-30.88 38.25-29.95 37.84-28.55L37.84-28.55Q37.45-27.3 37.2-25.6 36.95-23.9 36.9-22.65L36.9-22.65Q36.8-21.05 36.8-20.45L36.8-20.45 36.7-20.2Q36.7-17.4 36.59-15.15L36.59-15.15 36.5-10.1Q36.5-7.9 36.8-6.05L36.8-6.05Q37.05-4.05 38.25-2.45L38.25-2.45Q39.4-0.85 41.8-0.85L41.8-0.85Q42.55-0.85 43.05-1.3L43.05-1.3Q43.8-1.3 43.8-0.75L43.8-0.75Q43.8-0.4 43.17 0.08 42.55 0.55 41.9 0.8L41.9 0.8 40.25 0.8ZM60.54 0.9Q59.34 0.9 57.69-3.6L57.69-3.6Q56.14-7.75 54.99-12.6 53.84-17.45 53.74-19.4L53.74-19.4 53.59-19.6 52.84-18Q52.29-16.95 52.02-16.28 51.74-15.6 51.49-14.6L51.49-14.6Q51.19-13.65 51.19-12.65L51.19-12.65Q51.19-11.65 51.09-10.85L51.09-10.85 50.99-9.05 50.99-2.65Q50.99-2.2 51.14-1.2L51.14-1.2Q51.29-0.3 51.29 0.2L51.29 0.2Q51.29 0.45 51.04 0.63 50.79 0.8 50.49 0.8L50.49 0.8Q49.84 0.8 49.62 0.6 49.39 0.4 49.39-0.25L49.39-0.25 49.39-9.65Q49.39-10.45 49.64-12.8L49.64-12.8Q49.89-15.15 49.89-15.95L49.89-15.95Q49.89-18.05 50.14-20.8L50.14-20.8Q50.34-23.6 50.34-25.6L50.34-25.6 50.34-32.55Q50.64-33.1 51.29-33.1L51.29-33.1Q51.69-33.1 51.97-32.83 52.24-32.55 52.24-32.15L52.24-32.15Q51.84-31.25 51.84-29.75L51.84-29.75 51.74-24.5Q51.64-22.1 51.64-19.2L51.64-19.2Q52.14-19.35 55.54-26.1L55.54-26.1Q58.94-32.8 59.29-32.8L59.29-32.8Q60.59-32.8 60.59-31.95L60.59-31.95Q57.39-27.2 55.29-22.7L55.29-22.7 55.24-21.1Q55.19-20.4 55.19-19.5L55.19-19.5Q55.19-17.3 56.89-11.25 58.59-5.2 59.79-2.85L59.79-2.85Q60.34-2.1 60.44-2L60.44-2Q60.94-1.3 61.17-0.83 61.39-0.35 61.39 0.15L61.39 0.15Q61.39 0.5 61.14 0.7 60.89 0.9 60.54 0.9L60.54 0.9ZM85.84 2.6Q84.84 2.6 84.84-0.6L84.84-0.6 84.84-3.9Q84.84-11.1 84.54-15.15L84.54-15.15 84.39-17Q84.19-18.25 84.19-19.2L84.19-19.2Q84.19-20.9 84.29-22.3L84.29-22.3 84.39-25.4Q84.39-26.95 84.19-27.75L84.19-27.75Q83.19-27.05 78.14-6.7L78.14-6.7 78.09-5.95Q77.94-4.7 77.69-3.95L77.69-3.95Q77.54-3.4 77.27-3.1 76.99-2.8 76.64-2.8L76.64-2.8Q75.84-2.8 75.49-3.2 75.14-3.6 75.14-4.45L75.14-4.45Q75.14-5.8 73.87-11.45 72.59-17.1 71.12-22.3 69.64-27.5 69.09-28.05L69.09-28.05Q69.04-26.3 68.69-19.8L68.69-19.8Q67.99-8.3 67.99-1.7L67.99-1.7 68.04 0.3Q67.84 0.95 66.99 0.95L66.99 0.95Q66.84 0.95 66.49 0.68 66.14 0.4 66.14 0.25L66.14 0.25Q66.14-4.25 66.94-15.55L66.94-15.55Q67.69-26.05 67.69-31.3L67.69-31.3Q67.69-31.55 67.59-31.8L67.59-31.8Q67.44-32.1 67.44-32.25L67.44-32.25Q67.44-33 68.74-33L68.74-33Q69.59-33 69.74-32.25L69.74-32.25Q69.94-31.25 69.94-30.75L69.94-30.75 69.99-30.15Q70.24-28.85 71.44-26.15L71.44-26.15Q72.39-24 72.89-22.4L72.89-22.4Q73.19-21.2 73.44-20.45L73.44-20.45Q74.24-17.55 74.49-16.15L74.49-16.15 75.14-14.85Q75.29-14.1 75.74-12.4L75.74-12.4Q76.19-10.5 76.39-9.3 76.59-8.1 76.59-7L76.59-7Q77.14-7.85 79.72-17.23 82.29-26.6 82.74-29.2L82.74-29.2Q82.79-29.3 82.82-29.48 82.84-29.65 82.89-29.95L82.89-29.95Q82.99-30.6 83.34-31.9L83.34-31.9Q83.74-32.9 84.54-32.9L84.54-32.9Q84.89-32.9 85.34-32.6 85.79-32.3 85.79-32L85.79-32Q85.79-11.15 86.44-9.95L86.44-9.95 86.44-7.35Q86.39-6.2 86.39-4.7L86.39-4.7Q86.39-1.5 86.74 0.1L86.74 0.1Q86.79 0.15 86.82 0.25 86.84 0.35 86.89 0.5L86.89 0.5Q86.94 0.7 86.94 0.95L86.94 0.95Q86.94 1.5 86.62 2.05 86.29 2.6 85.84 2.6L85.84 2.6ZM84.19-27.95L84.19-28.05 84.14-28.05 84.04-28 84.19-27.95ZM95.39 0.65Q94.49 0.65 94.39-0.4L94.39-0.4 94.39-1.05Q94.44-1.3 94.44-1.65L94.44-1.65 94.24-1.85Q94.64-2.9 94.64-3.9L94.64-3.9Q94.64-5.05 94.49-7.2L94.49-7.2 94.39-10.5Q94.39-13 94.54-18L94.54-18Q94.74-22.45 94.74-25.55L94.74-25.55 94.64-28.55Q94.54-29.9 94.54-31.55L94.54-31.55Q94.54-32.3 94.89-32.63 95.24-32.95 95.99-32.95L95.99-32.95Q96.49-32.95 96.79-32.65L96.79-32.65Q96.89-32.6 98.24-32.45L98.24-32.45Q99.49-32.3 100.39-32L100.39-32Q101.34-31.7 101.34-31.25L101.34-31.25Q101.34-30.75 100.39-30.25L100.39-30.25Q97.54-31.2 96.34-31.2L96.34-31.2 96.09-30.9Q96.14-30.45 96.14-28.75L96.14-28.75Q96.14-26.6 96.04-24.9L96.04-24.9Q95.99-23.15 95.99-21L95.99-21Q95.99-19.6 96.69-19.6L96.69-19.6 97.49-19.65Q97.89-19.7 98.34-19.7L98.34-19.7Q100.29-19.7 100.29-18.8L100.29-18.8Q100.29-18.25 100.04-17.88 99.79-17.5 99.29-17.5L99.29-17.5Q98.54-17.5 98.14-17.9L98.14-17.9 96.54-18.15 96.29-18.15 96.04-17.9 96.04-17.75Q96.14-16.9 96.14-13.8L96.14-13.8Q96.14-11.85 96.09-10.25L96.09-10.25 96.04-6.7Q96.04-4.75 96.19-2.7L96.19-2.7Q96.24-1.55 96.69-1.18 97.14-0.8 98.34-0.8L98.34-0.8 99.24-0.85Q99.69-0.9 100.24-0.9L100.24-0.9Q101.69-0.9 101.69-0.25L101.69-0.25Q101.69 0.65 99.49 0.65L99.49 0.65 95.39 0.65ZM112.48 0.75Q111.69 0.75 110.76 0.23 109.84-0.3 109.23-1L109.23-1Q108.54-1.9 108.14-6.05 107.73-10.2 107.64-15.55L107.64-15.55Q107.64-16.75 107.59-17.35L107.59-17.35Q107.48-29.9 107.19-32.2L107.19-32.2 107.48-32.9Q108.64-32.75 108.64-30.15L108.64-30.15 108.79-16.9Q108.79-15.5 109.04-11.6L109.04-11.6Q109.34-8.1 109.34-6.3L109.34-6.3Q109.34-0.6 113.09-0.6L113.09-0.6Q115.39-0.6 116.04-11.1L116.04-11.1 116.09-12.1Q116.44-25.85 116.44-32.45L116.44-32.45 116.39-32.9Q116.34-33.1 116.34-33.35L116.34-33.35Q116.34-33.9 117.19-33.9L117.19-33.9Q117.79-33.9 117.94-33.6L117.94-33.6Q118.04-33.1 118.04-31.85L118.04-31.85Q118.04-28.05 117.74-26.75L117.74-26.75 117.79-26.45Q117.79-25.8 117.64-24.45L117.64-24.45 117.54-22.45 117.54-21.95Q117.59-21.75 117.59-21.45L117.59-21.45Q117.49-20.25 117.49-19.15L117.49-19.15Q117.44-18.8 117.44-18.05L117.44-18.05Q117.34-13.3 117.24-9.8L117.24-9.8Q117.09-5.45 116.04-2.45L116.04-2.45Q114.94 0.75 112.48 0.75L112.48 0.75ZM126.98 1L126.23 0.6Q125.68-2.55 125.68-6.6L125.68-6.6Q125.68-8.2 125.83-11.25L125.83-11.25 125.93-15.9Q125.58-16.6 125.58-17.05L125.58-17.05Q126.08-17.85 126.08-21.65L126.08-21.65Q126.08-30.75 125.83-31.35L125.83-31.35Q126.28-32.6 126.53-32.6L126.53-32.6 128.73-32.6Q129.28-32.6 130.31-32.08 131.33-31.55 132.03-30.95L132.03-30.95Q133.28-29.8 133.28-25.05L133.28-25.05Q133.28-22.5 133.13-21.15L133.13-21.15Q133.03-20.2 132.81-19.65 132.58-19.1 132.13-18.4L132.13-18.4Q131.38-17.25 129.58-16.4L129.58-16.4Q128.83-16 127.48-15.6L127.48-15.6 127.48-9.65Q127.48-8.4 127.73-4.75L127.73-4.75 127.83-3.15 127.93 0.1Q127.93 1 126.98 1L126.98 1ZM127.83-17.3Q129.28-17.3 130.28-18.65L130.28-18.65Q130.63-19.15 130.93-20 131.23-20.85 131.33-21.65L131.33-21.65Q131.63-23.1 131.63-25L131.63-25 131.63-26.35Q131.63-27.05 131.58-27.7 131.53-28.35 131.38-28.95L131.38-28.95Q131.18-29.6 130.86-30.03 130.53-30.45 129.98-30.75L129.98-30.75Q129.38-31.05 128.53-31.05L128.53-31.05Q127.93-31.05 127.68-30.75 127.43-30.45 127.43-29.7L127.43-29.7Q127.43-28.5 127.58-26.1L127.58-26.1 127.68-22.5Q127.68-21.2 127.58-20.15L127.58-20.15 127.48-17.8 127.83-17.3Z" opacity="1" transform="matrix(1,0,0,1,0,0)" fill="#f00808" class="wordmark-text-0" data-fill-palette-color="primary" id="text-0"></path></svg></g></svg></g><g transform="matrix(1,0,0,1,0,68.05012002159661)"><svg viewBox="0 0 192 7.854682117131223" height="7.854682117131223" width="192"><g transform="matrix(1,0,0,1,0,0)"><svg width="192" viewBox="5.159090995788574 -37.5 1161.0909423828125 47.5" height="7.854682117131223" data-palette-color="#111111"><path d="M6.35-33.2Q6.6-34.85 7.3-35.52 8-36.2 9.55-36.2L9.55-36.2 13.2-36.2Q14.25-36.2 14.88-35.7 15.5-35.2 15.5-34.45L15.5-34.45Q15.5-33.75 14.9-32.75L14.9-32.75 11-26.1Q10.45-25.2 9.85-24.88 9.25-24.55 8.35-24.55L8.35-24.55 6.6-24.55Q5.85-24.55 5.45-24.98 5.05-25.4 5.2-26.15L5.2-26.15 6.35-33.2ZM16.85-33.2Q17.1-34.85 17.8-35.52 18.5-36.2 20.05-36.2L20.05-36.2 23.7-36.2Q24.75-36.2 25.38-35.7 26-35.2 26-34.45L26-34.45Q26-33.75 25.4-32.75L25.4-32.75 21.5-26.1Q20.95-25.2 20.35-24.88 19.75-24.55 18.85-24.55L18.85-24.55 17.1-24.55Q16.35-24.55 15.95-24.98 15.55-25.4 15.7-26.15L15.7-26.15 16.85-33.2ZM53.95-33.3Q55.8-33.3 56.83-32.5 57.85-31.7 57.85-30.3L57.85-30.3Q57.85-29.6 57.65-28.95L57.65-28.95 56.35-24.3Q56-22.95 55.33-22.43 54.65-21.9 53.4-21.9L53.4-21.9Q52.2-21.9 51.53-22.43 50.85-22.95 50.5-24.15L50.5-24.15 49.7-27Q49.45-27.9 49.1-28.2 48.75-28.5 47.75-28.5L47.75-28.5 42.5-28.5 40-19.6 42.2-19.6Q42.55-19.6 43.15-20.1L43.15-20.1 44.85-21.6Q45.6-22.25 46.15-22.55 46.7-22.85 47.5-22.85L47.5-22.85Q48.4-22.85 48.98-22.38 49.55-21.9 49.55-21.15L49.55-21.15Q49.55-20.95 49.45-20.55L49.45-20.55 47.4-13.6Q47.1-12.5 46.38-11.98 45.65-11.45 44.8-11.45L44.8-11.45Q43.4-11.45 42.7-12.9L42.7-12.9 41.85-14.65Q41.5-15.4 40.75-15.4L40.75-15.4 38.8-15.4 35.85-4.8 40.25-4.8Q41.2-4.8 41.93-5.18 42.65-5.55 43.5-6.5L43.5-6.5 46.5-9.8Q47.3-10.65 48.03-11.03 48.75-11.4 49.8-11.4L49.8-11.4Q50.9-11.4 51.6-10.9 52.3-10.4 52.3-9.4L52.3-9.4Q52.3-9 52.15-8.45L52.15-8.45 50.7-3.4Q50.15-1.5 49.1-0.75 48.05 0 46.05 0L46.05 0 22.2 0Q21.15 0 20.58-0.35 20-0.7 20-1.3L20-1.3Q20-1.6 20.15-1.95L20.15-1.95Q20.35-2.5 20.8-2.8 21.25-3.1 21.35-3.15L21.35-3.15Q22.15-3.65 22.65-4.17 23.15-4.7 23.5-5.9L23.5-5.9 29.65-27.45Q29.85-28.1 29.85-28.65L29.85-28.65Q29.85-29.25 29.68-29.65 29.5-30.05 29.15-30.5L29.15-30.5Q28.7-31.15 28.7-31.55L28.7-31.55Q28.7-31.7 28.8-32.1L28.8-32.1Q29-32.75 29.7-33.02 30.4-33.3 31.75-33.3L31.75-33.3 53.95-33.3ZM105.45-16.75L102.4-6.9Q102.3-6.7 102.3-6.3L102.3-6.3Q102.3-5.95 102.48-5.75 102.65-5.55 102.95-5.55L102.95-5.55Q103.55-5.55 103.98-6.08 104.4-6.6 104.55-6.6L104.55-6.6Q104.8-6.6 104.95-6.28 105.1-5.95 105.1-5.5L105.1-5.5Q105.15-4.05 104.15-2.68 103.15-1.3 101.23-0.43 99.3 0.45 96.6 0.45L96.6 0.45Q93.3 0.45 91.35-1.07 89.4-2.6 89.35-5.15L89.35-5.15Q89.35-7 90.25-9.3L90.25-9.3 93-16.5Q93.25-17.15 93.25-17.55L93.25-17.55Q93.25-18.2 92.83-18.57 92.4-18.95 91.8-18.95L91.8-18.95Q90.95-18.95 90.05-18.2 89.15-17.45 88.45-15.85L88.45-15.85 85.7-6.9Q85.6-6.7 85.6-6.3L85.6-6.3Q85.6-5.95 85.78-5.75 85.95-5.55 86.25-5.55L86.25-5.55Q86.85-5.55 87.28-6.08 87.7-6.6 87.85-6.6L87.85-6.6Q88.1-6.6 88.25-6.28 88.4-5.95 88.4-5.5L88.4-5.5Q88.45-4.05 87.45-2.68 86.45-1.3 84.53-0.43 82.6 0.45 79.9 0.45L79.9 0.45Q76.6 0.45 74.65-1.07 72.7-2.6 72.65-5.15L72.65-5.15Q72.65-7 73.55-9.3L73.55-9.3 76.3-16.5Q76.55-17.15 76.55-17.55L76.55-17.55Q76.55-18.2 76.13-18.57 75.7-18.95 75.1-18.95L75.1-18.95Q74.25-18.95 73.35-18.23 72.45-17.5 71.85-15.9L71.85-15.9 68.55-5.2Q68.35-4.65 68.35-4.15L68.35-4.15Q68.35-3.55 68.6-3.18 68.85-2.8 69.3-2.4L69.3-2.4Q69.65-2.1 69.8-1.85 69.95-1.6 69.85-1.25L69.85-1.25Q69.65-0.6 68.9-0.3 68.15 0 66.55 0L66.55 0 55.15 0Q53.85 0 53.28-0.43 52.7-0.85 52.85-1.55L52.85-1.55Q53.05-2.15 53.9-2.6L53.9-2.6Q54.65-3 55.15-3.55 55.65-4.1 56-5.3L56-5.3 60.45-19.75Q60.55-20 60.55-20.45L60.55-20.45Q60.55-21 60.33-21.3 60.1-21.6 59.6-22.05L59.6-22.05Q59.1-22.45 58.9-22.75 58.7-23.05 58.85-23.55L58.85-23.55Q59.15-24.7 62-25.58 64.85-26.45 67.95-26.45L67.95-26.45Q70.4-26.45 71.83-25.1 73.25-23.75 73.2-21.4L73.2-21.4Q75.25-24.25 77.53-25.35 79.8-26.45 82.45-26.45L82.45-26.45Q85.35-26.45 87.18-24.78 89-23.1 89.2-20.4L89.2-20.4Q91.35-23.8 93.8-25.13 96.25-26.45 99.15-26.45L99.15-26.45Q102.2-26.45 104.08-24.6 105.95-22.75 105.95-19.8L105.95-19.8Q105.95-18.25 105.45-16.75L105.45-16.75ZM133.4-26.65Q137.25-26.65 139.45-24.1 141.65-21.55 141.65-17.15L141.65-17.15Q141.65-14.8 141-12.2L141-12.2Q139.5-6 135.4-2.78 131.3 0.45 125.9 0.45L125.9 0.45Q122.45 0.45 119.9-1L119.9-1 118.3 4.35Q118.1 4.9 118.1 5.4L118.1 5.4Q118.1 5.95 118.35 6.33 118.6 6.7 119 7.05L119 7.05Q119.4 7.45 119.53 7.7 119.65 7.95 119.55 8.3L119.55 8.3Q119.35 8.95 118.6 9.22 117.85 9.5 116.3 9.5L116.3 9.5 104.85 9.5Q103.55 9.5 102.98 9.08 102.4 8.65 102.65 8L102.65 8Q102.75 7.6 103 7.35 103.25 7.1 103.7 6.9L103.7 6.9Q104.45 6.4 104.9 5.88 105.35 5.35 105.7 4.2L105.7 4.2 113-19.75Q113.15-20.2 113.15-20.5L113.15-20.5Q113.15-21.05 112.9-21.38 112.65-21.7 112.15-22.05L112.15-22.05Q111.65-22.45 111.45-22.75 111.25-23.05 111.4-23.55L111.4-23.55Q111.7-24.7 114.55-25.58 117.4-26.45 120.5-26.45L120.5-26.45Q122.7-26.45 124.13-25.35 125.55-24.25 125.75-22.3L125.75-22.3Q129.15-26.65 133.4-26.65L133.4-26.65ZM127.6-11.8Q128.8-16.25 128.8-17.95L128.8-17.95Q128.8-19 128.48-19.33 128.15-19.65 127.55-19.65L127.55-19.65Q127.1-19.65 126.4-19.23 125.7-18.8 125-17.8L125-17.8 121.05-4.7Q121.65-4.1 122.5-4.1L122.5-4.1Q123.85-4.1 125.08-5.63 126.3-7.15 127.6-11.8L127.6-11.8ZM161.15-26.45Q167.95-26.45 171.18-23.7 174.4-20.95 174.4-16.5L174.4-16.5Q174.4-15 174-13.15L174-13.15Q173.05-9.05 170.45-5.98 167.85-2.9 164.08-1.23 160.3 0.45 155.9 0.45L155.9 0.45Q148.95 0.45 145.63-2.33 142.3-5.1 142.3-9.7L142.3-9.7Q142.3-11.25 142.7-13.15L142.7-13.15Q143.65-17.05 146.33-20.08 149-23.1 152.88-24.78 156.75-26.45 161.15-26.45L161.15-26.45ZM161-22Q159.95-22 158.78-20.13 157.6-18.25 156-13.05L156-13.05Q154.4-7.85 154.4-5.75L154.4-5.75Q154.4-4.65 154.75-4.28 155.1-3.9 155.7-3.9L155.7-3.9Q156.75-3.8 157.88-5.7 159-7.6 160.7-13.1L160.7-13.1Q162.25-17.95 162.25-20.15L162.25-20.15Q162.25-21.2 161.93-21.6 161.6-22 161-22L161-22ZM221.55-19.35Q221.55-14.9 218.45-10.25 215.35-5.6 210.63-2.58 205.9 0.45 201.35 0.45L201.35 0.45Q197.75 0.45 195.25-0.8 192.75-2.05 192-4.4L192-4.4Q190.15-2.15 187.9-1 185.65 0.15 183.2 0.15L183.2 0.15Q179.8 0.15 177.68-1.53 175.55-3.2 175.55-6.45L175.55-6.45Q175.55-8.15 176.1-9.95L176.1-9.95 178.9-19.75Q179-20.15 179-20.35L179-20.35Q179-20.85 178.75-21.2 178.5-21.55 178.05-21.95L178.05-21.95Q177.3-22.6 177.3-23.1L177.3-23.1Q177.25-23.8 178.15-24.6 179.05-25.4 180.68-25.93 182.3-26.45 184.35-26.45L184.35-26.45Q187.7-26.45 189.58-24.83 191.45-23.2 191.45-20.6L191.45-20.6Q191.45-19.45 191.05-18.1L191.05-18.1 188.5-9.6Q188.3-8.9 188.3-8.65L188.3-8.65Q188.3-8 188.68-7.65 189.05-7.3 189.7-7.3L189.7-7.3Q190.6-7.3 191.23-7.93 191.85-8.55 192.45-9.95L192.45-9.95 195.3-19.75Q195.4-20.15 195.4-20.35L195.4-20.35Q195.4-20.85 195.15-21.2 194.9-21.55 194.45-21.95L194.45-21.95Q193.7-22.6 193.7-23.1L193.7-23.1Q193.65-23.8 194.55-24.6 195.45-25.4 197.08-25.93 198.7-26.45 200.75-26.45L200.75-26.45Q204.15-26.45 206-24.85 207.85-23.25 207.85-20.6L207.85-20.6Q207.85-19.55 207.45-18.1L207.45-18.1 204.2-7.4Q204.1-7.15 204.1-6.65L204.1-6.65Q204.1-6 204.55-5.65 205-5.3 205.8-5.3L205.8-5.3Q206.9-5.3 208.38-6.28 209.85-7.25 211.28-9.08 212.7-10.9 213.6-13.4L213.6-13.4Q211.6-15.15 210.78-16.85 209.95-18.55 209.95-20.35L209.95-20.35Q209.95-22.9 211.35-24.68 212.75-26.45 215.4-26.45L215.4-26.45Q218.05-26.45 219.8-24.55 221.55-22.65 221.55-19.35L221.55-19.35ZM237.9-26.7Q244.25-26.7 247.1-24.68 249.95-22.65 249.95-19.5L249.95-19.5Q249.95-18.55 249.75-17.75L249.75-17.75Q249-14.45 245.58-13.03 242.15-11.6 237.5-11.6L237.5-11.6Q235.15-11.6 233.1-11.9L233.1-11.9Q233.05-9.3 234.5-8.25 235.95-7.2 238.55-7.2L238.55-7.2Q239.75-7.2 240.85-7.48 241.95-7.75 243.65-8.3L243.65-8.3Q245.05-8.8 245.55-8.8L245.55-8.8Q246.1-8.8 246.1-8.15L246.1-8.15Q246.15-6.4 244.8-4.48 243.45-2.55 240.8-1.2 238.15 0.15 234.4 0.15L234.4 0.15Q228.85 0.15 225.3-2.65 221.75-5.45 221.75-10.8L221.75-10.8Q221.75-12.3 222.15-14.3L222.15-14.3Q223.4-20.45 227.63-23.58 231.85-26.7 237.9-26.7L237.9-26.7ZM233.45-14.9Q233.65-14.85 234-14.85L234-14.85Q236.1-14.85 237.2-16.8 238.3-18.75 238.25-21.15L238.25-21.15Q238.2-22.55 237.45-22.55L237.45-22.55Q236.9-22.55 236.15-21.68 235.4-20.8 234.68-19.05 233.95-17.3 233.45-14.9L233.45-14.9ZM273.5-26.45Q276.3-26.45 277.98-24.75 279.65-23.05 279.65-20.55L279.65-20.55Q279.65-19.6 279.45-18.8L279.45-18.8Q278.95-16.75 277.55-15.65 276.15-14.55 274.2-14.55L274.2-14.55Q272.3-14.55 271.33-15.45 270.35-16.35 269.6-17.85L269.6-17.85Q269.2-18.7 268.85-19.1 268.5-19.5 268.05-19.5L268.05-19.5Q267.55-19.5 267.18-19.1 266.8-18.7 266.5-17.7L266.5-17.7 262.65-5.2Q262.55-4.95 262.55-4.45L262.55-4.45Q262.55-3.8 262.93-3.38 263.3-2.95 263.95-2.55L263.95-2.55Q264.55-2.15 264.75-1.9 264.95-1.65 264.9-1.25L264.9-1.25Q264.8-0.6 264.18-0.3 263.55 0 262.05 0L262.05 0 249.25 0Q247.95 0 247.38-0.43 246.8-0.85 246.95-1.55L246.95-1.55Q247.15-2.15 248-2.6L248-2.6Q248.75-3 249.25-3.55 249.75-4.1 250.1-5.3L250.1-5.3 254.55-19.75Q254.65-20 254.65-20.45L254.65-20.45Q254.65-21 254.43-21.3 254.2-21.6 253.7-22.05L253.7-22.05Q253.2-22.45 253-22.75 252.8-23.05 252.95-23.55L252.95-23.55Q253.25-24.7 256.1-25.58 258.95-26.45 262.05-26.45L262.05-26.45Q264.1-26.45 265.45-25.53 266.8-24.6 267.2-22.9L267.2-22.9Q269.6-26.45 273.5-26.45L273.5-26.45ZM290.9-26.45Q293.8-26.45 295.15-25.35 296.5-24.25 296.5-22.35L296.5-22.35Q296.5-21.2 296.15-20.15L296.15-20.15 291.55-5.2Q291.4-4.6 291.4-4.15L291.4-4.15Q291.4-3.5 291.65-3.13 291.9-2.75 292.35-2.4L292.35-2.4Q292.7-2.05 292.85-1.83 293-1.6 292.9-1.25L292.9-1.25Q292.65-0.6 291.9-0.3 291.15 0 289.6 0L289.6 0 278.2 0Q276.9 0 276.3-0.43 275.7-0.85 275.9-1.55L275.9-1.55Q276.1-2.15 276.95-2.6L276.95-2.6Q277.7-3 278.2-3.55 278.7-4.1 279.05-5.3L279.05-5.3 283.4-19.75Q283.55-20.2 283.55-20.5L283.55-20.5Q283.55-21.05 283.3-21.38 283.05-21.7 282.55-22.05L282.55-22.05Q282.05-22.45 281.85-22.75 281.65-23.05 281.8-23.55L281.8-23.55Q282.1-24.7 284.95-25.58 287.8-26.45 290.9-26.45L290.9-26.45ZM294.25-37.5Q296.2-37.5 297.5-36.23 298.8-34.95 298.8-33.1L298.8-33.1Q298.8-31.8 298.13-30.55 297.45-29.3 296.23-28.53 295-27.75 293.5-27.75L293.5-27.75Q291.6-27.75 290.33-29.03 289.05-30.3 289-32.2L289-32.2Q289-33.45 289.65-34.68 290.3-35.9 291.5-36.7 292.7-37.5 294.25-37.5L294.25-37.5ZM330.2-16.75L327.15-6.9Q327.05-6.7 327.05-6.3L327.05-6.3Q327.05-5.95 327.23-5.75 327.4-5.55 327.7-5.55L327.7-5.55Q328.3-5.55 328.73-6.08 329.15-6.6 329.3-6.6L329.3-6.6Q329.55-6.6 329.7-6.28 329.85-5.95 329.85-5.5L329.85-5.5Q329.9-4.05 328.9-2.68 327.9-1.3 325.98-0.43 324.05 0.45 321.35 0.45L321.35 0.45Q318.05 0.45 316.1-1.07 314.15-2.6 314.1-5.15L314.1-5.15Q314.1-7 315-9.3L315-9.3 317.75-16.5Q318-17.15 318-17.55L318-17.55Q318-18.2 317.58-18.57 317.15-18.95 316.55-18.95L316.55-18.95Q315.45-18.95 314.45-17.93 313.45-16.9 313-15.4L313-15.4 309.9-5.2Q309.7-4.65 309.7-4.15L309.7-4.15Q309.7-3.55 309.95-3.18 310.2-2.8 310.65-2.4L310.65-2.4Q311-2.1 311.15-1.85 311.3-1.6 311.2-1.25L311.2-1.25Q311-0.6 310.25-0.3 309.5 0 307.9 0L307.9 0 296.5 0Q295.2 0 294.63-0.43 294.05-0.85 294.2-1.55L294.2-1.55Q294.4-2.15 295.25-2.6L295.25-2.6Q296-3 296.5-3.55 297-4.1 297.35-5.3L297.35-5.3 301.8-19.75Q301.9-20 301.9-20.45L301.9-20.45Q301.9-21 301.68-21.3 301.45-21.6 300.95-22.05L300.95-22.05Q300.45-22.45 300.25-22.75 300.05-23.05 300.2-23.55L300.2-23.55Q300.5-24.7 303.35-25.58 306.2-26.45 309.3-26.45L309.3-26.45Q311.8-26.45 313.25-25.08 314.7-23.7 314.55-21.25L314.55-21.25Q316.6-24.2 318.9-25.33 321.2-26.45 323.9-26.45L323.9-26.45Q326.95-26.45 328.83-24.6 330.7-22.75 330.7-19.8L330.7-19.8Q330.7-18.25 330.2-16.75L330.2-16.75ZM362.3-34.6Q363.9-34.6 365.43-33.93 366.95-33.25 367.93-32.08 368.9-30.9 368.9-29.55L368.9-29.55Q368.9-26.6 364.9-26.6L364.9-26.6Q363.75-26.6 363.13-26.78 362.5-26.95 361.65-27.35L361.65-27.35Q361.5-27 361.5-26.35L361.5-26.35Q361.5-25.55 361.78-24.45 362.05-23.35 362.45-22.4L362.45-22.4Q363.5-20.85 363.5-18.7L363.5-18.7Q363.5-17.75 363.25-16.4L363.25-16.4Q362.65-13.8 360.63-11.65 358.6-9.5 355.43-8.28 352.25-7.05 348.45-7.05L348.45-7.05Q345.55-7.05 343-7.45L343-7.45Q342.25-6.8 342.25-5.85L342.25-5.85Q342.25-5.2 342.85-4.78 343.45-4.35 344.85-4.35L344.85-4.35 352.35-4.35Q356.2-4.35 358.35-3.03 360.5-1.7 360.5 0.75L360.5 0.75Q360.5 1.65 360.2 2.6L360.2 2.6Q359.6 4.55 357.48 6.23 355.35 7.9 351.5 8.95 347.65 10 342.15 10L342.15 10Q337.25 10 333.85 9.15 330.45 8.3 328.78 6.83 327.1 5.35 327.1 3.55L327.1 3.55Q327.1 3.15 327.3 2.35L327.3 2.35Q327.75 0.9 329.33-0.03 330.9-0.95 334.5-1.25L334.5-1.25Q333.3-2.4 333.3-4L333.3-4Q333.3-4.55 333.45-5.15L333.45-5.15Q334.25-7.75 338.15-9L338.15-9Q334.4-11.05 334.4-15L334.4-15Q334.4-16.1 334.7-17.3L334.7-17.3Q335.3-19.9 337.35-22.03 339.4-24.15 342.6-25.4 345.8-26.65 349.6-26.65L349.6-26.65Q355.55-26.65 358.95-25.1L358.95-25.1Q358.2-26.25 357.78-27.58 357.35-28.9 357.35-30L357.35-30Q357.35-31.9 358.58-33.25 359.8-34.6 362.3-34.6L362.3-34.6ZM351.45-16.85Q352.25-19.4 352.25-20.75L352.25-20.75Q352.25-22.45 350.8-22.45L350.8-22.45Q349.55-22.45 348.63-21.23 347.7-20 346.75-16.85L346.75-16.85Q345.95-14.25 345.95-12.9L345.95-12.9Q345.95-11.25 347.35-11.25L347.35-11.25Q348.6-11.25 349.55-12.5 350.5-13.75 351.45-16.85L351.45-16.85ZM346.3 0.7L341.5 0.7Q340.1 0.7 338.95 0.55L338.95 0.55Q338.35 1.3 338.35 2.55L338.35 2.55Q338.4 3.8 339.38 4.35 340.35 4.9 342.4 4.9L342.4 4.9Q344.9 4.9 346.48 4.15 348.05 3.4 348.05 2L348.05 2Q348.05 1.4 347.6 1.05 347.15 0.7 346.3 0.7L346.3 0.7ZM397.7-33.3Q405.2-33.3 409-30.43 412.8-27.55 412.8-22L412.8-22Q412.8-19.25 411.8-15.65L411.8-15.65Q410.15-9.85 407.35-6.45 404.55-3.05 399.98-1.5 395.4 0.05 388.25 0L388.25 0 374.65-0.05Q373.6-0.05 373.03-0.4 372.45-0.75 372.45-1.35L372.45-1.35Q372.45-1.65 372.6-2L372.6-2Q372.75-2.45 373.03-2.65 373.3-2.85 373.85-3.2L373.85-3.2Q374.65-3.65 375.13-4.2 375.6-4.75 375.95-5.95L375.95-5.95 382.05-27.45Q382.25-28.1 382.25-28.7L382.25-28.7Q382.25-29.25 382.08-29.63 381.9-30 381.6-30.5L381.6-30.5Q381.15-31.15 381.15-31.55L381.15-31.55Q381.15-31.7 381.25-32.1L381.25-32.1Q381.45-32.75 382.13-33.02 382.8-33.3 384.2-33.3L384.2-33.3 397.7-33.3ZM399-16.75Q400.3-21.45 400.3-24.15L400.3-24.15Q400.3-26.8 399.2-27.8 398.1-28.8 396.05-28.8L396.05-28.8 394.95-28.8 388.2-4.5 389.4-4.5Q391.7-4.5 393.28-5.48 394.85-6.45 396.2-9.08 397.55-11.7 399-16.75L399-16.75ZM436.9-26.45Q439.7-26.45 441.38-24.75 443.05-23.05 443.05-20.55L443.05-20.55Q443.05-19.6 442.85-18.8L442.85-18.8Q442.35-16.75 440.95-15.65 439.55-14.55 437.6-14.55L437.6-14.55Q435.7-14.55 434.73-15.45 433.75-16.35 433-17.85L433-17.85Q432.6-18.7 432.25-19.1 431.9-19.5 431.45-19.5L431.45-19.5Q430.95-19.5 430.58-19.1 430.2-18.7 429.9-17.7L429.9-17.7 426.05-5.2Q425.95-4.95 425.95-4.45L425.95-4.45Q425.95-3.8 426.33-3.38 426.7-2.95 427.35-2.55L427.35-2.55Q427.95-2.15 428.15-1.9 428.35-1.65 428.3-1.25L428.3-1.25Q428.2-0.6 427.58-0.3 426.95 0 425.45 0L425.45 0 412.65 0Q411.35 0 410.78-0.43 410.2-0.85 410.35-1.55L410.35-1.55Q410.55-2.15 411.4-2.6L411.4-2.6Q412.15-3 412.65-3.55 413.15-4.1 413.5-5.3L413.5-5.3 417.95-19.75Q418.05-20 418.05-20.45L418.05-20.45Q418.05-21 417.83-21.3 417.6-21.6 417.1-22.05L417.1-22.05Q416.6-22.45 416.4-22.75 416.2-23.05 416.35-23.55L416.35-23.55Q416.65-24.7 419.5-25.58 422.35-26.45 425.45-26.45L425.45-26.45Q427.5-26.45 428.85-25.53 430.2-24.6 430.6-22.9L430.6-22.9Q433-26.45 436.9-26.45L436.9-26.45ZM458.25-26.7Q464.6-26.7 467.45-24.68 470.3-22.65 470.3-19.5L470.3-19.5Q470.3-18.55 470.1-17.75L470.1-17.75Q469.35-14.45 465.93-13.03 462.5-11.6 457.85-11.6L457.85-11.6Q455.5-11.6 453.45-11.9L453.45-11.9Q453.4-9.3 454.85-8.25 456.3-7.2 458.9-7.2L458.9-7.2Q460.1-7.2 461.2-7.48 462.3-7.75 464-8.3L464-8.3Q465.4-8.8 465.9-8.8L465.9-8.8Q466.45-8.8 466.45-8.15L466.45-8.15Q466.5-6.4 465.15-4.48 463.8-2.55 461.15-1.2 458.5 0.15 454.75 0.15L454.75 0.15Q449.2 0.15 445.65-2.65 442.1-5.45 442.1-10.8L442.1-10.8Q442.1-12.3 442.5-14.3L442.5-14.3Q443.75-20.45 447.98-23.58 452.2-26.7 458.25-26.7L458.25-26.7ZM453.8-14.9Q454-14.85 454.35-14.85L454.35-14.85Q456.45-14.85 457.55-16.8 458.65-18.75 458.6-21.15L458.6-21.15Q458.55-22.55 457.8-22.55L457.8-22.55Q457.25-22.55 456.5-21.68 455.75-20.8 455.03-19.05 454.3-17.3 453.8-14.9L453.8-14.9ZM487.15-26.45Q492.9-26.45 496.35-24.33 499.8-22.2 499.8-17.85L499.8-17.85Q499.8-16.2 499.2-14.1L499.2-14.1 497.15-7.2Q497.1-7 497.1-6.7L497.1-6.7Q497.1-5.9 497.75-5.9L497.75-5.9Q498.35-5.9 498.78-6.43 499.2-6.95 499.35-6.95L499.35-6.95Q499.6-6.95 499.78-6.6 499.95-6.25 499.95-5.8L499.95-5.8Q500-4.45 498.93-3.05 497.85-1.65 496.05-0.75 494.25 0.15 492.1 0.15L492.1 0.15Q489.5 0.15 487.65-0.8 485.8-1.75 485.1-3.6L485.1-3.6Q483.6-1.8 481.55-0.83 479.5 0.15 477.15 0.15L477.15 0.15Q474.5 0.15 472.7-0.88 470.9-1.9 470.03-3.53 469.15-5.15 469.15-6.95L469.15-6.95Q469.15-7.75 469.3-8.5L469.3-8.5Q470.1-11.95 472.78-13.7 475.45-15.45 479.15-15.45L479.15-15.45Q483.3-15.45 487.3-14.15L487.3-14.15 488.55-17.45Q489.2-19.55 489.2-20.7L489.2-20.7Q489.15-21.9 488.4-22.5 487.65-23.1 486.1-23.1L486.1-23.1Q486.4-22.3 486.4-21.45L486.4-21.45Q486.4-19.6 485-18.25 483.6-16.9 481-16.9L481-16.9Q478.55-16.9 477.18-17.98 475.8-19.05 475.8-20.65L475.8-20.65Q475.8-23.15 478.6-24.8 481.4-26.45 487.15-26.45L487.15-26.45ZM484.35-11.3Q482.95-11.3 482.08-10.23 481.2-9.15 481.2-7.9L481.2-7.9Q481.2-7.1 481.58-6.6 481.95-6.1 482.65-6.1L482.65-6.1Q483.3-6.1 484.08-6.63 484.85-7.15 485.2-8.2L485.2-8.2 486.25-11.15Q485.4-11.3 484.35-11.3L484.35-11.3ZM552.6-16.75L549.55-6.9Q549.45-6.7 549.45-6.3L549.45-6.3Q549.45-5.95 549.63-5.75 549.8-5.55 550.1-5.55L550.1-5.55Q550.7-5.55 551.13-6.08 551.55-6.6 551.7-6.6L551.7-6.6Q551.95-6.6 552.1-6.28 552.25-5.95 552.25-5.5L552.25-5.5Q552.3-4.05 551.3-2.68 550.3-1.3 548.38-0.43 546.45 0.45 543.75 0.45L543.75 0.45Q540.45 0.45 538.5-1.07 536.55-2.6 536.5-5.15L536.5-5.15Q536.5-7 537.4-9.3L537.4-9.3 540.15-16.5Q540.4-17.15 540.4-17.55L540.4-17.55Q540.4-18.2 539.98-18.57 539.55-18.95 538.95-18.95L538.95-18.95Q538.1-18.95 537.2-18.2 536.3-17.45 535.6-15.85L535.6-15.85 532.85-6.9Q532.75-6.7 532.75-6.3L532.75-6.3Q532.75-5.95 532.93-5.75 533.1-5.55 533.4-5.55L533.4-5.55Q534-5.55 534.43-6.08 534.85-6.6 535-6.6L535-6.6Q535.25-6.6 535.4-6.28 535.55-5.95 535.55-5.5L535.55-5.5Q535.6-4.05 534.6-2.68 533.6-1.3 531.68-0.43 529.75 0.45 527.05 0.45L527.05 0.45Q523.75 0.45 521.8-1.07 519.85-2.6 519.8-5.15L519.8-5.15Q519.8-7 520.7-9.3L520.7-9.3 523.45-16.5Q523.7-17.15 523.7-17.55L523.7-17.55Q523.7-18.2 523.28-18.57 522.85-18.95 522.25-18.95L522.25-18.95Q521.4-18.95 520.5-18.23 519.6-17.5 519-15.9L519-15.9 515.7-5.2Q515.5-4.65 515.5-4.15L515.5-4.15Q515.5-3.55 515.75-3.18 516-2.8 516.45-2.4L516.45-2.4Q516.8-2.1 516.95-1.85 517.1-1.6 517-1.25L517-1.25Q516.8-0.6 516.05-0.3 515.3 0 513.7 0L513.7 0 502.3 0Q501 0 500.43-0.43 499.85-0.85 500-1.55L500-1.55Q500.2-2.15 501.05-2.6L501.05-2.6Q501.8-3 502.3-3.55 502.8-4.1 503.15-5.3L503.15-5.3 507.6-19.75Q507.7-20 507.7-20.45L507.7-20.45Q507.7-21 507.48-21.3 507.25-21.6 506.75-22.05L506.75-22.05Q506.25-22.45 506.05-22.75 505.85-23.05 506-23.55L506-23.55Q506.3-24.7 509.15-25.58 512-26.45 515.1-26.45L515.1-26.45Q517.55-26.45 518.98-25.1 520.4-23.75 520.35-21.4L520.35-21.4Q522.4-24.25 524.68-25.35 526.95-26.45 529.6-26.45L529.6-26.45Q532.5-26.45 534.33-24.78 536.15-23.1 536.35-20.4L536.35-20.4Q538.5-23.8 540.95-25.13 543.4-26.45 546.3-26.45L546.3-26.45Q549.35-26.45 551.23-24.6 553.1-22.75 553.1-19.8L553.1-19.8Q553.1-18.25 552.6-16.75L552.6-16.75ZM570.85-26.9Q575-26.9 578.03-26.15 581.05-25.4 582.68-24.05 584.3-22.7 584.3-21L584.3-21Q584.3-19.25 582.93-18.15 581.55-17.05 579.1-17.05L579.1-17.05Q576.6-17.05 574.88-18.3 573.15-19.55 573.15-21.45L573.15-21.45Q573.15-22.1 573.35-22.7L573.35-22.7Q572.45-22.95 571.75-22.95L571.75-22.95Q570.5-22.95 569.68-22.35 568.85-21.75 568.9-20.65L568.9-20.65Q568.9-19.35 570.2-18.45 571.5-17.55 574.4-16.2L574.4-16.2Q576.9-15.1 578.53-14.18 580.15-13.25 581.28-11.85 582.4-10.45 582.4-8.55L582.4-8.55Q582.4-8.15 582.2-7.05L582.2-7.05Q581.4-3.7 577.75-1.75 574.1 0.2 568.15 0.2L568.15 0.2Q561.45 0.2 557.53-1.6 553.6-3.4 553.6-6.55L553.6-6.55Q553.6-8.7 554.9-9.8 556.2-10.9 558.35-10.9L558.35-10.9Q560.85-10.9 562.63-9.35 564.4-7.8 564.4-5.4L564.4-5.4Q564.4-4.75 564.25-4.05L564.25-4.05Q565.45-3.75 566.55-3.75L566.55-3.75Q567.85-3.75 568.7-4.45 569.55-5.15 569.55-6.4L569.55-6.4Q569.5-7.55 568.4-8.38 567.3-9.2 564.9-10.35L564.9-10.35Q562.65-11.4 561.2-12.33 559.75-13.25 558.73-14.65 557.7-16.05 557.7-17.95L557.7-17.95Q557.7-22.05 561.13-24.48 564.55-26.9 570.85-26.9L570.85-26.9ZM588.85-10.1Q591.15-10.1 592.7-8.5 594.25-6.9 594.25-4.25L594.25-4.25Q594.25-1.1 592.43 1.65 590.6 4.4 588 6.05 585.4 7.7 583.25 7.7L583.25 7.7Q581.6 7.7 581.6 6.55L581.6 6.55Q581.6 5.9 582.15 5.3 582.7 4.7 583.75 3.9L583.75 3.9Q584.85 3.05 585.45 2.38 586.05 1.7 586.05 0.95L586.05 0.95Q586.05 0.35 585.25-0.65L585.25-0.65Q584.5-1.65 584.13-2.48 583.75-3.3 583.75-4.5L583.75-4.5Q583.75-6.8 585.23-8.45 586.7-10.1 588.85-10.1L588.85-10.1ZM632.95-34.05Q639.25-34.05 642.8-31.08 646.35-28.1 646.35-22.5L646.35-22.5Q646.35-19.85 645.55-16.8L645.55-16.8Q644.05-11.2 640.9-7.3 637.75-3.4 633.4-1.4 629.05 0.6 623.95 0.6L623.95 0.6Q617.7 0.6 614.15-2.38 610.6-5.35 610.6-10.95L610.6-10.95Q610.6-13.5 611.45-16.8L611.45-16.8Q612.9-22.35 616.02-26.23 619.15-30.1 623.48-32.08 627.8-34.05 632.95-34.05L632.95-34.05ZM632.05-29.15Q630.55-29.15 629.35-27.95 628.15-26.75 626.98-24.03 625.8-21.3 624.45-16.45L624.45-16.45Q622.45-9.45 622.45-6.8L622.45-6.8Q622.45-5.25 623-4.55 623.55-3.85 624.75-3.85L624.75-3.85Q626.25-3.85 627.45-5.08 628.65-6.3 629.8-9 630.95-11.7 632.35-16.45L632.35-16.45Q634.3-23.35 634.3-26.15L634.3-26.15Q634.3-27.75 633.75-28.45 633.2-29.15 632.05-29.15L632.05-29.15ZM679.25-16.75L676.2-6.9Q676.1-6.7 676.1-6.3L676.1-6.3Q676.1-5.95 676.27-5.75 676.45-5.55 676.75-5.55L676.75-5.55Q677.35-5.55 677.77-6.08 678.2-6.6 678.35-6.6L678.35-6.6Q678.6-6.6 678.75-6.28 678.9-5.95 678.9-5.5L678.9-5.5Q678.95-4.05 677.95-2.68 676.95-1.3 675.02-0.43 673.1 0.45 670.4 0.45L670.4 0.45Q667.1 0.45 665.15-1.07 663.2-2.6 663.15-5.15L663.15-5.15Q663.15-7 664.05-9.3L664.05-9.3 666.8-16.5Q667.05-17.15 667.05-17.55L667.05-17.55Q667.05-18.2 666.63-18.57 666.2-18.95 665.6-18.95L665.6-18.95Q664.5-18.95 663.5-17.93 662.5-16.9 662.05-15.4L662.05-15.4 658.95-5.2Q658.75-4.65 658.75-4.15L658.75-4.15Q658.75-3.55 659-3.18 659.25-2.8 659.7-2.4L659.7-2.4Q660.05-2.1 660.2-1.85 660.35-1.6 660.25-1.25L660.25-1.25Q660.05-0.6 659.3-0.3 658.55 0 656.95 0L656.95 0 645.55 0Q644.25 0 643.67-0.43 643.1-0.85 643.25-1.55L643.25-1.55Q643.45-2.15 644.3-2.6L644.3-2.6Q645.05-3 645.55-3.55 646.05-4.1 646.4-5.3L646.4-5.3 650.85-19.75Q650.95-20 650.95-20.45L650.95-20.45Q650.95-21 650.73-21.3 650.5-21.6 650-22.05L650-22.05Q649.5-22.45 649.3-22.75 649.1-23.05 649.25-23.55L649.25-23.55Q649.55-24.7 652.4-25.58 655.25-26.45 658.35-26.45L658.35-26.45Q660.85-26.45 662.3-25.08 663.75-23.7 663.6-21.25L663.6-21.25Q665.65-24.2 667.95-25.33 670.25-26.45 672.95-26.45L672.95-26.45Q676-26.45 677.88-24.6 679.75-22.75 679.75-19.8L679.75-19.8Q679.75-18.25 679.25-16.75L679.25-16.75ZM698-26.7Q704.35-26.7 707.2-24.68 710.05-22.65 710.05-19.5L710.05-19.5Q710.05-18.55 709.85-17.75L709.85-17.75Q709.1-14.45 705.67-13.03 702.25-11.6 697.6-11.6L697.6-11.6Q695.25-11.6 693.2-11.9L693.2-11.9Q693.15-9.3 694.6-8.25 696.05-7.2 698.65-7.2L698.65-7.2Q699.85-7.2 700.95-7.48 702.05-7.75 703.75-8.3L703.75-8.3Q705.15-8.8 705.65-8.8L705.65-8.8Q706.2-8.8 706.2-8.15L706.2-8.15Q706.25-6.4 704.9-4.48 703.55-2.55 700.9-1.2 698.25 0.15 694.5 0.15L694.5 0.15Q688.95 0.15 685.4-2.65 681.85-5.45 681.85-10.8L681.85-10.8Q681.85-12.3 682.25-14.3L682.25-14.3Q683.5-20.45 687.72-23.58 691.95-26.7 698-26.7L698-26.7ZM693.55-14.9Q693.75-14.85 694.1-14.85L694.1-14.85Q696.2-14.85 697.3-16.8 698.4-18.75 698.35-21.15L698.35-21.15Q698.3-22.55 697.55-22.55L697.55-22.55Q697-22.55 696.25-21.68 695.5-20.8 694.77-19.05 694.05-17.3 693.55-14.9L693.55-14.9ZM747.4-33.3Q750.8-33.3 753.32-32.27 755.85-31.25 757.17-29.48 758.5-27.7 758.5-25.4L758.5-25.4Q758.5-24.1 758.15-23L758.15-23Q756.7-17.95 749.8-16.6L749.8-16.6Q752.2-15.9 753.6-14.28 755-12.65 755-10.25L755-10.25Q755-9.15 754.6-7.65L754.6-7.65Q753.5-3.75 750.17-1.88 746.85 0 740.75 0L740.75 0 719.95 0Q718.9 0 718.32-0.35 717.75-0.7 717.75-1.3L717.75-1.3Q717.75-1.6 717.9-1.95L717.9-1.95Q718.1-2.5 718.55-2.8 719-3.1 719.1-3.15L719.1-3.15Q719.9-3.65 720.4-4.17 720.9-4.7 721.25-5.9L721.25-5.9 727.35-27.45Q727.55-28.1 727.55-28.7L727.55-28.7Q727.55-29.25 727.38-29.63 727.2-30 726.9-30.5L726.9-30.5Q726.45-31.15 726.45-31.55L726.45-31.55Q726.45-31.7 726.55-32.1L726.55-32.1Q726.75-32.75 727.42-33.02 728.1-33.3 729.5-33.3L729.5-33.3 747.4-33.3ZM745.15-24.15Q745.5-25.25 745.5-26.2L745.5-26.2Q745.5-28.8 742.55-28.8L742.55-28.8 740.3-28.8 737.65-19.45 739.85-19.45Q741.95-19.45 743.17-20.48 744.4-21.5 745.15-24.15L745.15-24.15ZM741.5-9.45Q741.85-10.65 741.85-11.65L741.85-11.65Q741.85-14.35 738.75-14.35L738.75-14.35 736.25-14.35 733.4-4.5 735.95-4.5Q738.1-4.5 739.4-5.58 740.7-6.65 741.5-9.45L741.5-9.45ZM774.95-26.45Q780.7-26.45 784.15-24.33 787.6-22.2 787.6-17.85L787.6-17.85Q787.6-16.2 787-14.1L787-14.1 784.95-7.2Q784.9-7 784.9-6.7L784.9-6.7Q784.9-5.9 785.55-5.9L785.55-5.9Q786.15-5.9 786.57-6.43 787-6.95 787.15-6.95L787.15-6.95Q787.4-6.95 787.57-6.6 787.75-6.25 787.75-5.8L787.75-5.8Q787.8-4.45 786.72-3.05 785.65-1.65 783.85-0.75 782.05 0.15 779.9 0.15L779.9 0.15Q777.3 0.15 775.45-0.8 773.6-1.75 772.9-3.6L772.9-3.6Q771.4-1.8 769.35-0.83 767.3 0.15 764.95 0.15L764.95 0.15Q762.3 0.15 760.5-0.88 758.7-1.9 757.82-3.53 756.95-5.15 756.95-6.95L756.95-6.95Q756.95-7.75 757.1-8.5L757.1-8.5Q757.9-11.95 760.57-13.7 763.25-15.45 766.95-15.45L766.95-15.45Q771.1-15.45 775.1-14.15L775.1-14.15 776.35-17.45Q777-19.55 777-20.7L777-20.7Q776.95-21.9 776.2-22.5 775.45-23.1 773.9-23.1L773.9-23.1Q774.2-22.3 774.2-21.45L774.2-21.45Q774.2-19.6 772.8-18.25 771.4-16.9 768.8-16.9L768.8-16.9Q766.35-16.9 764.97-17.98 763.6-19.05 763.6-20.65L763.6-20.65Q763.6-23.15 766.4-24.8 769.2-26.45 774.95-26.45L774.95-26.45ZM772.15-11.3Q770.75-11.3 769.87-10.23 769-9.15 769-7.9L769-7.9Q769-7.1 769.37-6.6 769.75-6.1 770.45-6.1L770.45-6.1Q771.1-6.1 771.87-6.63 772.65-7.15 773-8.2L773-8.2 774.05-11.15Q773.2-11.3 772.15-11.3L772.15-11.3ZM806.45-26.7Q809.5-26.7 811.8-25.83 814.1-24.95 815.38-23.43 816.65-21.9 816.65-20.05L816.65-20.05Q816.65-18.05 815.27-16.75 813.9-15.45 811.55-15.45L811.55-15.45Q809.15-15.45 807.8-16.68 806.45-17.9 806.45-20L806.45-20Q806.45-21 806.75-22.1L806.75-22.1Q804.65-21.55 803.02-19.93 801.4-18.3 800.85-15.65L800.85-15.65Q800.55-14.15 800.55-12.95L800.55-12.95Q800.55-10.25 802.05-8.85 803.55-7.45 806.35-7.45L806.35-7.45Q807.95-7.45 809.1-7.78 810.25-8.1 811.45-8.65L811.45-8.65Q812.45-9.15 812.9-9.15L812.9-9.15Q813.2-9.15 813.3-9.03 813.4-8.9 813.4-8.5L813.4-8.5Q813.45-6.65 811.88-4.63 810.3-2.6 807.52-1.23 804.75 0.15 801.3 0.15L801.3 0.15Q797.7 0.15 794.92-1.18 792.15-2.5 790.63-4.98 789.1-7.45 789.1-10.75L789.1-10.75Q789.1-12.3 789.5-14.2L789.5-14.2Q790.85-20.4 795.47-23.55 800.1-26.7 806.45-26.7L806.45-26.7ZM845.05-26.45Q847.9-26.45 849.63-24.88 851.35-23.3 851.35-21.05L851.35-21.05Q851.35-18.65 849.9-17.3 848.45-15.95 846.1-15.95L846.1-15.95Q844-15.95 842.85-17.03 841.7-18.1 841.75-19.45L841.75-19.45Q841.25-19.55 840.9-19.05 840.55-18.55 840.15-17.1L840.15-17.1Q839.9-16.15 839.2-15.35L839.2-15.35Q842.6-15.1 844.25-13.8 845.9-12.5 845.9-10.45L845.9-10.45Q845.9-9.45 845.55-8.45L845.55-8.45 845.15-6.9Q845.05-6.65 845.05-6.25L845.05-6.25Q845.05-5.55 845.7-5.55L845.7-5.55Q846.3-5.55 846.73-6.08 847.15-6.6 847.3-6.6L847.3-6.6Q847.55-6.6 847.7-6.28 847.85-5.95 847.85-5.5L847.85-5.5Q847.9-4.05 846.98-2.68 846.05-1.3 844.17-0.43 842.3 0.45 839.65 0.45L839.65 0.45Q836.45 0.45 834.32-1.15 832.2-2.75 832.2-5.35L832.2-5.35Q832.2-6.3 832.6-7.5L832.6-7.5 833.55-10Q833.8-10.9 833.8-11.3L833.8-11.3Q833.8-11.95 833.38-12.25 832.95-12.55 832.05-12.55L832.05-12.55 831.05-12.55 828.8-5.2Q828.65-4.6 828.65-4.15L828.65-4.15Q828.65-3.5 828.9-3.13 829.15-2.75 829.6-2.4L829.6-2.4Q829.95-2.05 830.1-1.83 830.25-1.6 830.15-1.25L830.15-1.25Q829.9-0.6 829.15-0.3 828.4 0 826.85 0L826.85 0 815.45 0Q814.15 0 813.55-0.43 812.95-0.85 813.15-1.55L813.15-1.55Q813.35-2.15 814.2-2.6L814.2-2.6Q814.95-3 815.45-3.55 815.95-4.1 816.3-5.3L816.3-5.3 823.9-30.25Q824.05-30.7 824.05-31L824.05-31Q824.05-31.55 823.77-31.9 823.5-32.25 823.05-32.6L823.05-32.6Q822.55-33 822.32-33.3 822.1-33.6 822.25-34.1L822.25-34.1Q822.55-35.25 825.4-36.1 828.25-36.95 831.35-36.95L831.35-36.95Q834.25-36.95 835.6-35.88 836.95-34.8 836.95-32.9L836.95-32.9Q836.95-31.75 836.6-30.7L836.6-30.7 832.25-16.5 833.9-16.5Q834.9-16.5 835.52-17.1 836.15-17.7 836.5-18.85L836.5-18.85Q837.75-22.55 839.75-24.5 841.75-26.45 845.05-26.45L845.05-26.45ZM867.3-26.7Q873.65-26.7 876.5-24.68 879.35-22.65 879.35-19.5L879.35-19.5Q879.35-18.55 879.15-17.75L879.15-17.75Q878.4-14.45 874.98-13.03 871.55-11.6 866.9-11.6L866.9-11.6Q864.55-11.6 862.5-11.9L862.5-11.9Q862.45-9.3 863.9-8.25 865.35-7.2 867.95-7.2L867.95-7.2Q869.15-7.2 870.25-7.48 871.35-7.75 873.05-8.3L873.05-8.3Q874.45-8.8 874.95-8.8L874.95-8.8Q875.5-8.8 875.5-8.15L875.5-8.15Q875.55-6.4 874.2-4.48 872.85-2.55 870.2-1.2 867.55 0.15 863.8 0.15L863.8 0.15Q858.25 0.15 854.7-2.65 851.15-5.45 851.15-10.8L851.15-10.8Q851.15-12.3 851.55-14.3L851.55-14.3Q852.8-20.45 857.02-23.58 861.25-26.7 867.3-26.7L867.3-26.7ZM862.85-14.9Q863.05-14.85 863.4-14.85L863.4-14.85Q865.5-14.85 866.6-16.8 867.7-18.75 867.65-21.15L867.65-21.15Q867.6-22.55 866.85-22.55L866.85-22.55Q866.3-22.55 865.55-21.68 864.8-20.8 864.08-19.05 863.35-17.3 862.85-14.9L862.85-14.9ZM902.9-26.45Q905.7-26.45 907.38-24.75 909.05-23.05 909.05-20.55L909.05-20.55Q909.05-19.6 908.85-18.8L908.85-18.8Q908.35-16.75 906.95-15.65 905.55-14.55 903.6-14.55L903.6-14.55Q901.7-14.55 900.73-15.45 899.75-16.35 899-17.85L899-17.85Q898.6-18.7 898.25-19.1 897.9-19.5 897.45-19.5L897.45-19.5Q896.95-19.5 896.58-19.1 896.2-18.7 895.9-17.7L895.9-17.7 892.05-5.2Q891.95-4.95 891.95-4.45L891.95-4.45Q891.95-3.8 892.33-3.38 892.7-2.95 893.35-2.55L893.35-2.55Q893.95-2.15 894.15-1.9 894.35-1.65 894.3-1.25L894.3-1.25Q894.2-0.6 893.58-0.3 892.95 0 891.45 0L891.45 0 878.65 0Q877.35 0 876.77-0.43 876.2-0.85 876.35-1.55L876.35-1.55Q876.55-2.15 877.4-2.6L877.4-2.6Q878.15-3 878.65-3.55 879.15-4.1 879.5-5.3L879.5-5.3 883.95-19.75Q884.05-20 884.05-20.45L884.05-20.45Q884.05-21 883.83-21.3 883.6-21.6 883.1-22.05L883.1-22.05Q882.6-22.45 882.4-22.75 882.2-23.05 882.35-23.55L882.35-23.55Q882.65-24.7 885.5-25.58 888.35-26.45 891.45-26.45L891.45-26.45Q893.5-26.45 894.85-25.53 896.2-24.6 896.6-22.9L896.6-22.9Q899-26.45 902.9-26.45L902.9-26.45ZM952.75-22.9L947.85-5.9Q947.65-5.25 947.65-4.6L947.65-4.6Q947.65-4.05 947.8-3.68 947.95-3.3 948.13-3.08 948.3-2.85 948.35-2.75L948.35-2.75Q948.85-2.25 948.85-1.75L948.85-1.75Q948.85-1.65 948.75-1.25L948.75-1.25Q948.55-0.55 947.88-0.28 947.2 0 945.8 0L945.8 0 933.95 0Q932.9 0 932.33-0.35 931.75-0.7 931.75-1.3L931.75-1.3Q931.75-1.6 931.9-1.95L931.9-1.95Q932.05-2.35 932.33-2.58 932.6-2.8 933.1-3.1L933.1-3.1Q933.9-3.55 934.4-4.1 934.9-4.65 935.25-5.9L935.25-5.9 936.55-10.2 928.75-10.2 927.4-7.35Q926.55-5.5 926.55-4.45L926.55-4.45Q926.55-3.85 926.75-3.48 926.95-3.1 927.35-2.7L927.35-2.7Q927.7-2.3 927.83-2.02 927.95-1.75 927.85-1.3L927.85-1.3Q927.65-0.55 927.03-0.28 926.4 0 925.05 0L925.05 0 917.6 0Q916.45 0 915.85-0.43 915.25-0.85 915.25-1.55L915.25-1.55Q915.25-2.35 915.83-2.83 916.4-3.3 917.55-3.85L917.55-3.85Q919.05-4.6 919.95-5.33 920.85-6.05 921.5-7.35L921.5-7.35 930.4-25.8Q932.45-30.1 935.23-32.02 938-33.95 942.55-33.95L942.55-33.95Q947.65-33.95 950.45-31.88 953.25-29.8 953.25-26.1L953.25-26.1Q953.25-24.55 952.75-22.9L952.75-22.9ZM931.05-15.2L938.05-15.2 940.7-24Q940.9-24.6 940.9-25.25L940.9-25.25Q940.9-26.2 940.38-26.68 939.85-27.15 938.9-27.15L938.9-27.15Q937.7-27.15 936.85-26.45 936-25.75 935.15-23.95L935.15-23.95 931.05-15.2ZM974.55-25.8Q975.5-25.8 976.03-25.4 976.55-25 976.55-24.3L976.55-24.3Q976.55-24.1 976.45-23.6L976.45-23.6Q975.8-21.4 973.45-21.4L973.45-21.4 970.55-21.4 966.8-9.05Q966.55-8.3 966.55-7.5L966.55-7.5Q966.55-6.6 967.05-6.25 967.55-5.9 968.45-5.9L968.45-5.9Q969.25-5.9 970.45-6.1L970.45-6.1Q971.05-6.25 971.5-6.25L971.5-6.25Q971.85-6.25 972.03-6.03 972.2-5.8 972.2-5.45L972.2-5.45Q972.25-4.45 970.73-3.03 969.2-1.6 966.6-0.58 964 0.45 960.85 0.45L960.85 0.45Q957.45 0.45 955.4-1.1 953.35-2.65 953.35-5.35L953.35-5.35Q953.35-6.6 953.75-7.75L953.75-7.75 956.95-17.65Q957.2-18.5 957.2-19L957.2-19Q957.2-20 956.73-20.7 956.25-21.4 955.4-22.15L955.4-22.15Q954.65-22.85 954.35-23.33 954.05-23.8 954.2-24.45L954.2-24.45Q954.4-25.1 955.05-25.45 955.7-25.8 957.1-25.8L957.1-25.8 959.9-25.8 963.05-28.95Q964.7-30.6 966.08-31.25 967.45-31.9 969.65-31.9L969.65-31.9Q972.8-31.9 972.8-29.5L972.8-29.5Q972.8-28.75 972.6-28.1L972.6-28.1 971.9-25.8 974.55-25.8ZM1019.15-22.9L1014.25-5.9Q1014.05-5.25 1014.05-4.6L1014.05-4.6Q1014.05-4.05 1014.2-3.68 1014.35-3.3 1014.53-3.08 1014.7-2.85 1014.75-2.75L1014.75-2.75Q1015.25-2.25 1015.25-1.75L1015.25-1.75Q1015.25-1.65 1015.15-1.25L1015.15-1.25Q1014.95-0.55 1014.28-0.28 1013.6 0 1012.2 0L1012.2 0 1000.35 0Q999.3 0 998.73-0.35 998.15-0.7 998.15-1.3L998.15-1.3Q998.15-1.6 998.3-1.95L998.3-1.95Q998.45-2.35 998.73-2.58 999-2.8 999.5-3.1L999.5-3.1Q1000.3-3.55 1000.8-4.1 1001.3-4.65 1001.65-5.9L1001.65-5.9 1002.95-10.2 995.15-10.2 993.8-7.35Q992.95-5.5 992.95-4.45L992.95-4.45Q992.95-3.85 993.15-3.48 993.35-3.1 993.75-2.7L993.75-2.7Q994.1-2.3 994.23-2.02 994.35-1.75 994.25-1.3L994.25-1.3Q994.05-0.55 993.43-0.28 992.8 0 991.45 0L991.45 0 984 0Q982.85 0 982.25-0.43 981.65-0.85 981.65-1.55L981.65-1.55Q981.65-2.35 982.23-2.83 982.8-3.3 983.95-3.85L983.95-3.85Q985.45-4.6 986.35-5.33 987.25-6.05 987.9-7.35L987.9-7.35 996.8-25.8Q998.85-30.1 1001.63-32.02 1004.4-33.95 1008.95-33.95L1008.95-33.95Q1014.05-33.95 1016.85-31.88 1019.65-29.8 1019.65-26.1L1019.65-26.1Q1019.65-24.55 1019.15-22.9L1019.15-22.9ZM997.45-15.2L1004.45-15.2 1007.1-24Q1007.3-24.6 1007.3-25.25L1007.3-25.25Q1007.3-26.2 1006.78-26.68 1006.25-27.15 1005.3-27.15L1005.3-27.15Q1004.1-27.15 1003.25-26.45 1002.4-25.75 1001.55-23.95L1001.55-23.95 997.45-15.2ZM1068.65-33.3Q1071.4-33.3 1071.4-31.05L1071.4-31.05Q1071.4-30.35 1071.1-29.3L1071.1-29.3 1069.9-25.25Q1069.35-23.4 1068.55-22.65 1067.75-21.9 1066.25-21.9L1066.25-21.9Q1065-21.9 1064.32-22.55 1063.65-23.2 1063.05-24.6L1063.05-24.6 1062.2-26.65Q1061.8-27.6 1061.35-27.95 1060.9-28.3 1059.95-28.3L1059.95-28.3 1058.8-28.3 1052.45-5.95Q1052.3-5.3 1052.3-4.8L1052.3-4.8Q1052.3-4.2 1052.47-3.8 1052.65-3.4 1053-2.95L1053-2.95Q1053.45-2.25 1053.45-1.8L1053.45-1.8Q1053.45-1.7 1053.35-1.3L1053.35-1.3Q1053.1-0.65 1052.38-0.35 1051.65-0.05 1050.3-0.05L1050.3-0.05 1038.55-0.05Q1037.5-0.05 1036.92-0.4 1036.35-0.75 1036.35-1.4L1036.35-1.4Q1036.35-1.7 1036.5-2L1036.5-2Q1036.7-2.45 1036.97-2.68 1037.25-2.9 1037.8-3.25L1037.8-3.25Q1038.55-3.7 1039.05-4.25 1039.55-4.8 1039.9-5.95L1039.9-5.95 1046.2-28.3 1045.05-28.3Q1043.95-28.3 1043.25-27.95 1042.55-27.6 1041.75-26.65L1041.75-26.65 1040.1-24.6Q1038.95-23.25 1037.88-22.58 1036.8-21.9 1035.55-21.9L1035.55-21.9Q1034.4-21.9 1033.75-22.5 1033.1-23.1 1033.1-24.15L1033.1-24.15Q1033.1-24.65 1033.25-25.25L1033.25-25.25 1034.55-29.8Q1034.95-31.2 1035.45-31.93 1035.95-32.65 1036.88-32.98 1037.8-33.3 1039.5-33.3L1039.5-33.3 1068.65-33.3ZM1079.55-26.45Q1082.45-26.45 1083.8-25.35 1085.15-24.25 1085.15-22.35L1085.15-22.35Q1085.15-21.2 1084.8-20.15L1084.8-20.15 1080.2-5.2Q1080.05-4.6 1080.05-4.15L1080.05-4.15Q1080.05-3.5 1080.3-3.13 1080.55-2.75 1081-2.4L1081-2.4Q1081.35-2.05 1081.5-1.83 1081.65-1.6 1081.55-1.25L1081.55-1.25Q1081.3-0.6 1080.55-0.3 1079.8 0 1078.25 0L1078.25 0 1066.85 0Q1065.55 0 1064.95-0.43 1064.35-0.85 1064.55-1.55L1064.55-1.55Q1064.75-2.15 1065.6-2.6L1065.6-2.6Q1066.35-3 1066.85-3.55 1067.35-4.1 1067.7-5.3L1067.7-5.3 1072.05-19.75Q1072.2-20.2 1072.2-20.5L1072.2-20.5Q1072.2-21.05 1071.95-21.38 1071.7-21.7 1071.2-22.05L1071.2-22.05Q1070.7-22.45 1070.5-22.75 1070.3-23.05 1070.45-23.55L1070.45-23.55Q1070.75-24.7 1073.6-25.58 1076.45-26.45 1079.55-26.45L1079.55-26.45ZM1082.9-37.5Q1084.85-37.5 1086.15-36.23 1087.45-34.95 1087.45-33.1L1087.45-33.1Q1087.45-31.8 1086.77-30.55 1086.1-29.3 1084.88-28.53 1083.65-27.75 1082.15-27.75L1082.15-27.75Q1080.25-27.75 1078.97-29.03 1077.7-30.3 1077.65-32.2L1077.65-32.2Q1077.65-33.45 1078.3-34.68 1078.95-35.9 1080.15-36.7 1081.35-37.5 1082.9-37.5L1082.9-37.5ZM1135.45-16.75L1132.4-6.9Q1132.3-6.7 1132.3-6.3L1132.3-6.3Q1132.3-5.95 1132.47-5.75 1132.65-5.55 1132.95-5.55L1132.95-5.55Q1133.55-5.55 1133.97-6.08 1134.4-6.6 1134.55-6.6L1134.55-6.6Q1134.8-6.6 1134.95-6.28 1135.1-5.95 1135.1-5.5L1135.1-5.5Q1135.15-4.05 1134.15-2.68 1133.15-1.3 1131.22-0.43 1129.3 0.45 1126.6 0.45L1126.6 0.45Q1123.3 0.45 1121.35-1.07 1119.4-2.6 1119.35-5.15L1119.35-5.15Q1119.35-7 1120.25-9.3L1120.25-9.3 1123-16.5Q1123.25-17.15 1123.25-17.55L1123.25-17.55Q1123.25-18.2 1122.82-18.57 1122.4-18.95 1121.8-18.95L1121.8-18.95Q1120.95-18.95 1120.05-18.2 1119.15-17.45 1118.45-15.85L1118.45-15.85 1115.7-6.9Q1115.6-6.7 1115.6-6.3L1115.6-6.3Q1115.6-5.95 1115.77-5.75 1115.95-5.55 1116.25-5.55L1116.25-5.55Q1116.85-5.55 1117.27-6.08 1117.7-6.6 1117.85-6.6L1117.85-6.6Q1118.1-6.6 1118.25-6.28 1118.4-5.95 1118.4-5.5L1118.4-5.5Q1118.45-4.05 1117.45-2.68 1116.45-1.3 1114.52-0.43 1112.6 0.45 1109.9 0.45L1109.9 0.45Q1106.6 0.45 1104.65-1.07 1102.7-2.6 1102.65-5.15L1102.65-5.15Q1102.65-7 1103.55-9.3L1103.55-9.3 1106.3-16.5Q1106.55-17.15 1106.55-17.55L1106.55-17.55Q1106.55-18.2 1106.13-18.57 1105.7-18.95 1105.1-18.95L1105.1-18.95Q1104.25-18.95 1103.35-18.23 1102.45-17.5 1101.85-15.9L1101.85-15.9 1098.55-5.2Q1098.35-4.65 1098.35-4.15L1098.35-4.15Q1098.35-3.55 1098.6-3.18 1098.85-2.8 1099.3-2.4L1099.3-2.4Q1099.65-2.1 1099.8-1.85 1099.95-1.6 1099.85-1.25L1099.85-1.25Q1099.65-0.6 1098.9-0.3 1098.15 0 1096.55 0L1096.55 0 1085.15 0Q1083.85 0 1083.27-0.43 1082.7-0.85 1082.85-1.55L1082.85-1.55Q1083.05-2.15 1083.9-2.6L1083.9-2.6Q1084.65-3 1085.15-3.55 1085.65-4.1 1086-5.3L1086-5.3 1090.45-19.75Q1090.55-20 1090.55-20.45L1090.55-20.45Q1090.55-21 1090.32-21.3 1090.1-21.6 1089.6-22.05L1089.6-22.05Q1089.1-22.45 1088.9-22.75 1088.7-23.05 1088.85-23.55L1088.85-23.55Q1089.15-24.7 1092-25.58 1094.85-26.45 1097.95-26.45L1097.95-26.45Q1100.4-26.45 1101.82-25.1 1103.25-23.75 1103.2-21.4L1103.2-21.4Q1105.25-24.25 1107.52-25.35 1109.8-26.45 1112.45-26.45L1112.45-26.45Q1115.35-26.45 1117.17-24.78 1119-23.1 1119.2-20.4L1119.2-20.4Q1121.35-23.8 1123.8-25.13 1126.25-26.45 1129.15-26.45L1129.15-26.45Q1132.2-26.45 1134.07-24.6 1135.95-22.75 1135.95-19.8L1135.95-19.8Q1135.95-18.25 1135.45-16.75L1135.45-16.75ZM1154.2-26.7Q1160.55-26.7 1163.4-24.68 1166.25-22.65 1166.25-19.5L1166.25-19.5Q1166.25-18.55 1166.05-17.75L1166.05-17.75Q1165.3-14.45 1161.88-13.03 1158.45-11.6 1153.8-11.6L1153.8-11.6Q1151.45-11.6 1149.4-11.9L1149.4-11.9Q1149.35-9.3 1150.8-8.25 1152.25-7.2 1154.85-7.2L1154.85-7.2Q1156.05-7.2 1157.15-7.48 1158.25-7.75 1159.95-8.3L1159.95-8.3Q1161.35-8.8 1161.85-8.8L1161.85-8.8Q1162.4-8.8 1162.4-8.15L1162.4-8.15Q1162.45-6.4 1161.1-4.48 1159.75-2.55 1157.1-1.2 1154.45 0.15 1150.7 0.15L1150.7 0.15Q1145.15 0.15 1141.6-2.65 1138.05-5.45 1138.05-10.8L1138.05-10.8Q1138.05-12.3 1138.45-14.3L1138.45-14.3Q1139.7-20.45 1143.92-23.58 1148.15-26.7 1154.2-26.7L1154.2-26.7ZM1149.75-14.9Q1149.95-14.85 1150.3-14.85L1150.3-14.85Q1152.4-14.85 1153.5-16.8 1154.6-18.75 1154.55-21.15L1154.55-21.15Q1154.5-22.55 1153.75-22.55L1153.75-22.55Q1153.2-22.55 1152.45-21.68 1151.7-20.8 1150.97-19.05 1150.25-17.3 1149.75-14.9L1149.75-14.9Z" opacity="1" transform="matrix(1,0,0,1,0,0)" fill="#111111" class="slogan-text-1" data-fill-palette-color="secondary" id="text-1"></path></svg></g></svg></g></svg></g></svg></g><g transform="matrix(1,0,0,1,36.67199999999999,0)"><svg viewBox="0 0 118.65600000000002 90.59090653634388" height="90.59090653634388" width="118.65600000000002"><g><svg xmlns="http://www.w3.org/2000/svg" xmlns:xlink="http://www.w3.org/1999/xlink" version="1.1" x="0" y="0" viewBox="5 15.644000053405762 89.99900817871094 68.71200561523438" enable-background="new 0 0 100 100" xml:space="preserve" height="90.59090653634388" width="118.65600000000002" class="icon-icon-0" data-fill-palette-color="accent" id="icon-0"><g fill="#252222" data-fill-palette-color="accent"><path d="M37.558 84.356h24.885c0.802 0 1.451-0.65 1.451-1.451v-9.332c0-0.385-0.152-0.754-0.425-1.025-3.235-3.237-8.145-5.092-13.469-5.092s-10.233 1.854-13.469 5.092c-0.272 0.271-0.425 0.641-0.425 1.025v9.332C36.106 83.706 36.756 84.356 37.558 84.356zM39.009 74.195c2.697-2.445 6.665-3.836 10.991-3.836s8.294 1.391 10.991 3.836v7.258H39.009V74.195z" fill="#252222" data-fill-palette-color="accent"></path><path d="M41.394 58.02c0 4.746 3.861 8.607 8.606 8.607s8.606-3.861 8.606-8.607c0-4.745-3.861-8.605-8.606-8.605S41.394 53.274 41.394 58.02zM55.702 58.02c0 3.146-2.558 5.704-5.702 5.704s-5.702-2.559-5.702-5.704c0-3.145 2.558-5.702 5.702-5.702S55.702 54.875 55.702 58.02z" fill="#252222" data-fill-palette-color="accent"></path><path d="M81.106 67.456c-5.325 0-10.234 1.854-13.469 5.092-0.272 0.271-0.426 0.641-0.426 1.025v9.332c0 0.801 0.65 1.451 1.452 1.451h24.884c0.802 0 1.452-0.65 1.452-1.451v-9.332c0-0.385-0.153-0.754-0.425-1.025C91.34 69.311 86.43 67.456 81.106 67.456zM92.097 81.453H70.115v-7.258c2.697-2.445 6.664-3.836 10.991-3.836 4.326 0 8.293 1.391 10.99 3.836V81.453z" fill="#252222" data-fill-palette-color="accent"></path><path d="M81.106 66.627c4.746 0 8.605-3.861 8.605-8.607 0-4.745-3.859-8.605-8.605-8.605-4.745 0-8.606 3.86-8.606 8.605C72.5 62.766 76.361 66.627 81.106 66.627zM81.106 52.317c3.144 0 5.703 2.558 5.703 5.702 0 3.146-2.56 5.704-5.703 5.704-3.145 0-5.703-2.559-5.703-5.704C75.403 54.875 77.962 52.317 81.106 52.317z" fill="#252222" data-fill-palette-color="accent"></path><path d="M6.452 84.356h24.884c0.802 0 1.452-0.65 1.452-1.451v-9.332c0-0.385-0.153-0.754-0.426-1.025-3.234-3.237-8.144-5.092-13.469-5.092-5.323 0-10.233 1.854-13.469 5.092C5.153 72.819 5 73.188 5 73.573v9.332C5 83.706 5.65 84.356 6.452 84.356zM7.903 74.195c2.697-2.445 6.664-3.836 10.99-3.836 4.327 0 8.294 1.391 10.991 3.836v7.258H7.903V74.195z" fill="#252222" data-fill-palette-color="accent"></path><path d="M18.894 49.414c-4.746 0-8.605 3.86-8.605 8.605 0 4.746 3.859 8.607 8.605 8.607 4.745 0 8.606-3.861 8.606-8.607C27.5 53.274 23.639 49.414 18.894 49.414zM18.894 63.724c-3.144 0-5.703-2.559-5.703-5.704 0-3.145 2.56-5.702 5.703-5.702 3.145 0 5.703 2.558 5.703 5.702C24.597 61.165 22.038 63.724 18.894 63.724z" fill="#252222" data-fill-palette-color="accent"></path><path d="M40.646 54.602l0.974-2.735c-4.442-1.58-9.907-1.58-14.346 0l0.974 2.735C32.068 53.24 36.822 53.24 40.646 54.602z" fill="#252222" data-fill-palette-color="accent"></path><path d="M34.447 32.616c-4.745 0-8.605 3.861-8.605 8.607 0 4.745 3.86 8.605 8.605 8.605s8.605-3.86 8.605-8.605C43.053 36.478 39.192 32.616 34.447 32.616zM34.447 46.926c-3.145 0-5.702-2.559-5.702-5.702 0-3.146 2.558-5.704 5.702-5.704 3.144 0 5.703 2.559 5.703 5.704C40.15 44.367 37.591 46.926 34.447 46.926z" fill="#252222" data-fill-palette-color="accent"></path><path d="M71.752 54.602l0.974-2.735c-4.438-1.58-9.903-1.58-14.346 0l0.974 2.735C63.179 53.24 67.933 53.241 71.752 54.602z" fill="#252222" data-fill-palette-color="accent"></path><path d="M56.947 41.224c0 4.745 3.86 8.605 8.605 8.605s8.605-3.86 8.605-8.605c0-4.746-3.86-8.607-8.605-8.607S56.947 36.478 56.947 41.224zM65.553 35.52c3.145 0 5.702 2.559 5.702 5.704 0 3.144-2.558 5.702-5.702 5.702-3.144 0-5.703-2.559-5.703-5.702C59.85 38.078 62.409 35.52 65.553 35.52z" fill="#252222" data-fill-palette-color="accent"></path><path d="M42.827 34.894l0.973 2.734c3.828-1.36 8.572-1.36 12.4 0l0.973-2.734C52.728 33.312 47.272 33.312 42.827 34.894z" fill="#252222" data-fill-palette-color="accent"></path><path d="M50 15.644c-4.745 0-8.606 3.86-8.606 8.605 0 4.746 3.861 8.606 8.606 8.606s8.606-3.86 8.606-8.606C58.606 19.504 54.745 15.644 50 15.644zM50 29.953c-3.145 0-5.702-2.559-5.702-5.704 0-3.145 2.558-5.702 5.702-5.702s5.702 2.558 5.702 5.702C55.702 27.395 53.145 29.953 50 29.953z" fill="#252222" data-fill-palette-color="accent"></path></g></svg></g></svg></g><g></g></svg></g></svg></g></svg></g></svg></g><defs></defs></svg><rect width="320" height="360" fill="none" stroke="none" visibility="hidden"></rect></g></svg></g></svg>